<svg width="40" height="40" viewBox="0 0 40 40" fill="none" xmlns="http://www.w3.org/2000/svg">
<g clip-path="url(#clip0_21935_22962)">
<path d="M20 30C25.5228 30 30 25.5228 30 20C30 14.4772 25.5228 10 20 10C14.4772 10 10 14.4772 10 20C10 25.5228 14.4772 30 20 30Z" fill="#279FEA"/>
<path d="M22.7334 19.0832L20.2042 17.6041L17.6709 19.0832V22.0249L20.2042 23.4832L22.7334 22.0249V19.0832Z" fill="white"/>
<path d="M15.546 20.0002L14.3418 18.9377V23.9585L18.0126 26.046V24.6293L15.546 23.1752V20.0002Z" fill="white"/>
<path d="M24.8705 20V23.2292L22.4539 24.6292V26.1708L26.0664 23.9417V18.8708L24.8705 20Z" fill="white"/>
<path d="M20.1957 15.1667L23.3957 17.0167L24.2707 16.1125L20.1957 13.75L16.0999 16.1333L16.9749 17.0417L20.1957 15.1667Z" fill="white"/>
</g>
<defs>
<clipPath id="clip0_21935_22962">
<rect width="20" height="20" fill="white" transform="translate(10 10)"/>
</clipPath>
</defs>
</svg>
