<svg width="40" height="40" viewBox="0 0 40 40" fill="none" xmlns="http://www.w3.org/2000/svg">
<path d="M17.8072 24.1297C17.8072 24.1297 17.6756 24.5393 17.4783 24.744C17.4204 24.8107 17.3492 24.8636 17.2697 24.8989C17.1902 24.9343 17.1042 24.9513 17.0178 24.9488C16.6936 25.0395 16.3639 25.1079 16.031 25.1536C16.031 25.1536 16.4915 25.2218 17.0178 25.2901C17.2151 25.2901 17.2151 25.2901 17.3467 25.3584C17.6756 25.3584 17.8072 25.1536 17.8072 25.1536V24.1297Z" fill="#E9654B"/>
<path d="M23.8592 24.1297C23.8592 24.1297 23.9908 24.5393 24.1882 24.744C24.246 24.8107 24.3172 24.8636 24.3967 24.8989C24.4762 24.9343 24.5622 24.9513 24.6487 24.9488C24.9729 25.0395 25.3025 25.1079 25.6354 25.1536C25.6354 25.1536 25.1749 25.2218 24.5829 25.2901C24.3855 25.2901 24.3855 25.2901 24.254 25.3584C23.8592 25.3584 23.7935 25.1536 23.7935 25.1536L23.8592 24.1297Z" fill="#E9654B"/>
<path d="M20.8989 24.744C24.8227 24.744 28.0036 21.4434 28.0036 17.372C28.0036 13.3006 24.8227 10 20.8989 10C16.9751 10 13.7942 13.3006 13.7942 17.372C13.7942 21.4434 16.9751 24.744 20.8989 24.744Z" fill="#B6CFEA"/>
<path d="M20.899 24.471C24.6774 24.471 27.7405 21.2927 27.7405 17.372C27.7405 13.4514 24.6774 10.2731 20.899 10.2731C17.1205 10.2731 14.0574 13.4514 14.0574 17.372C14.0574 21.2927 17.1205 24.471 20.899 24.471Z" fill="#E6F5F8"/>
<path d="M20.899 23.3106C23.9872 23.3106 26.4907 20.713 26.4907 17.5086C26.4907 14.3042 23.9872 11.7065 20.899 11.7065C17.8109 11.7065 15.3074 14.3042 15.3074 17.5086C15.3074 20.713 17.8109 23.3106 20.899 23.3106Z" fill="#D0E8F0"/>
<path d="M17.6099 20.2389C17.6099 20.2389 18.0704 27.9522 18.0704 28.0887C18.0704 28.157 18.1362 28.2935 17.8073 28.43C17.4783 28.5665 16.4258 28.8396 16.4258 28.8396H18.0046C18.7282 28.8396 18.7282 28.2252 18.7282 28.0887C18.7282 27.9522 18.9256 25.017 18.9256 25.017C18.9256 25.017 18.9914 28.4983 18.9914 28.6348C18.9914 28.7713 18.9256 28.9761 18.4651 29.1126C18.1362 29.1809 17.1494 29.3856 17.1494 29.3856H18.6625C19.5834 29.3856 19.5834 28.7713 19.5834 28.7713L19.7808 25.6996C19.7808 25.6996 19.8466 28.7713 19.8466 29.1126C19.8466 29.3856 19.6492 29.5904 18.9256 29.7269C18.4651 29.8635 17.873 30 17.873 30H19.5834C20.4386 29.9317 20.5702 29.3174 20.5702 29.3174L22.0175 21.6723L17.6099 20.2389Z" fill="#FE733E"/>
<path d="M24.1883 20.2389C24.1883 20.2389 23.7278 27.9522 23.7278 28.0887C23.7278 28.157 23.662 28.2935 23.991 28.43C24.3199 28.5665 25.3724 28.8396 25.3724 28.8396H23.7936C23.07 28.8396 23.07 28.2252 23.07 28.0887C23.07 27.9522 22.8726 25.017 22.8726 25.017C22.8726 25.017 22.8068 28.4983 22.8068 28.6348C22.8068 28.7713 22.8726 28.9761 23.3331 29.1126C23.662 29.1809 24.6488 29.3856 24.6488 29.3856H23.1358C22.2148 29.3856 22.2148 28.7713 22.2148 28.7713L22.0174 25.6996C22.0174 25.6996 21.9516 28.7713 21.9516 29.1126C21.9516 29.3856 22.149 29.5904 22.8726 29.7269C23.3331 29.8635 23.9252 30 23.9252 30H22.2148C21.3596 29.9317 21.228 29.3174 21.228 29.3174L19.7808 21.6723L24.1883 20.2389Z" fill="#FE733E"/>
<path d="M24.2542 16.4846C24.2542 18.3959 22.7412 19.8976 20.965 19.8976C19.1888 19.8976 17.6758 18.3276 17.6758 16.4846C17.6758 14.6416 19.1888 13.0717 20.965 13.0717C22.7412 13.0717 24.2542 14.5734 24.2542 16.4846Z" fill="#FE733E"/>
<mask id="mask0_21935_19465" style="mask-type:luminance" maskUnits="userSpaceOnUse" x="17" y="16" width="8" height="10">
<path d="M24.2541 16.348L23.8594 25.6995H17.9388L17.6099 16.348" fill="white"/>
</mask>
<g mask="url(#mask0_21935_19465)">
<path d="M20.9649 24.4026C24.1984 24.4026 26.8197 21.6827 26.8197 18.3275C26.8197 14.9723 24.1984 12.2524 20.9649 12.2524C17.7314 12.2524 15.1101 14.9723 15.1101 18.3275C15.1101 21.6827 17.7314 24.4026 20.9649 24.4026Z" fill="#FE733E"/>
</g>
<g opacity="0.22">
<path d="M24.0568 20.2389C24.0568 20.2389 24.4515 16.6211 23.9252 15.2559C22.9384 12.8669 20.636 13.0716 20.636 13.0716C20.636 13.0716 21.9517 13.6177 22.0175 15.6655C22.0832 17.0989 22.0175 19.215 22.0175 19.215L24.0568 20.2389Z" fill="#E34E3B"/>
</g>
<g opacity="0.5">
<path d="M19.5835 15.1194C19.8379 15.1194 20.044 14.9055 20.044 14.6416C20.044 14.3777 19.8379 14.1638 19.5835 14.1638C19.3292 14.1638 19.123 14.3777 19.123 14.6416C19.123 14.9055 19.3292 15.1194 19.5835 15.1194Z" fill="#FBDFC3"/>
</g>
<path d="M22.0833 21.604C22.0833 22.7645 21.557 23.5153 20.8992 23.5153C20.2414 23.5153 19.7151 22.6279 19.7151 21.4675C19.7151 21.4675 20.2414 22.5597 20.965 22.5597C21.6886 22.5597 22.0833 21.604 22.0833 21.604Z" fill="#010101"/>
<path d="M22.0832 21.6041C22.0832 22.3549 21.5569 22.7645 20.8991 22.7645C20.2413 22.7645 19.7808 22.2184 19.7808 21.5358C19.7808 21.5358 20.307 22.2184 21.0307 22.2184C21.7543 22.2184 22.0832 21.6041 22.0832 21.6041Z" fill="white"/>
<path d="M23.2017 20.512C24.328 20.512 25.241 19.5646 25.241 18.3959C25.241 17.2273 24.328 16.2799 23.2017 16.2799C22.0754 16.2799 21.1624 17.2273 21.1624 18.3959C21.1624 19.5646 22.0754 20.512 23.2017 20.512Z" fill="#E9654B"/>
<path d="M18.5967 20.512C19.723 20.512 20.636 19.5646 20.636 18.3959C20.636 17.2273 19.723 16.2799 18.5967 16.2799C17.4704 16.2799 16.5574 17.2273 16.5574 18.3959C16.5574 19.5646 17.4704 20.512 18.5967 20.512Z" fill="#E9654B"/>
<path d="M23.2016 20.0341C24.0736 20.0341 24.7805 19.3007 24.7805 18.3959C24.7805 17.4911 24.0736 16.7577 23.2016 16.7577C22.3297 16.7577 21.6228 17.4911 21.6228 18.3959C21.6228 19.3007 22.3297 20.0341 23.2016 20.0341Z" fill="white"/>
<path d="M18.4651 20.0341C19.337 20.0341 20.0439 19.3007 20.0439 18.3959C20.0439 17.4911 19.337 16.7577 18.4651 16.7577C17.5931 16.7577 16.8862 17.4911 16.8862 18.3959C16.8862 19.3007 17.5931 20.0341 18.4651 20.0341Z" fill="white"/>
<path d="M18.4651 18.6689C18.7195 18.6689 18.9256 18.455 18.9256 18.1911C18.9256 17.9272 18.7195 17.7133 18.4651 17.7133C18.2108 17.7133 18.0046 17.9272 18.0046 18.1911C18.0046 18.455 18.2108 18.6689 18.4651 18.6689Z" fill="#010101"/>
<path d="M23.2017 18.6689C23.456 18.6689 23.6622 18.455 23.6622 18.1911C23.6622 17.9272 23.456 17.7133 23.2017 17.7133C22.9474 17.7133 22.7412 17.9272 22.7412 18.1911C22.7412 18.455 22.9474 18.6689 23.2017 18.6689Z" fill="#010101"/>
<path d="M13.6627 19.2149C13.6189 19.2177 13.5749 19.2107 13.5338 19.1946C13.4927 19.1784 13.4554 19.1533 13.4243 19.1211C13.3932 19.0888 13.369 19.0501 13.3535 19.0074C13.3379 18.9648 13.3312 18.9192 13.3338 18.8736V16.1433C13.3312 16.0977 13.3379 16.0521 13.3535 16.0095C13.369 15.9668 13.3932 15.9281 13.4243 15.8958C13.4554 15.8636 13.4927 15.8385 13.5338 15.8224C13.5749 15.8062 13.6189 15.7992 13.6627 15.802C13.7066 15.7992 13.7506 15.8062 13.7917 15.8224C13.8328 15.8385 13.8701 15.8636 13.9012 15.8958C13.9323 15.9281 13.9564 15.9668 13.972 16.0095C13.9876 16.0521 13.9943 16.0977 13.9917 16.1433V18.8736C13.9943 18.9192 13.9876 18.9648 13.972 19.0074C13.9564 19.0501 13.9323 19.0888 13.9012 19.1211C13.8701 19.1533 13.8328 19.1784 13.7917 19.1946C13.7506 19.2107 13.7066 19.2177 13.6627 19.2149Z" fill="#B6CFEA"/>
<path d="M28.0038 19.2149C27.9599 19.2177 27.916 19.2107 27.8749 19.1946C27.8338 19.1784 27.7964 19.1533 27.7653 19.1211C27.7342 19.0888 27.7101 19.0501 27.6945 19.0074C27.6789 18.9648 27.6722 18.9192 27.6749 18.8736V16.1433C27.6722 16.0977 27.6789 16.0521 27.6945 16.0095C27.7101 15.9668 27.7342 15.9281 27.7653 15.8958C27.7964 15.8636 27.8338 15.8385 27.8749 15.8224C27.916 15.8062 27.9599 15.7992 28.0038 15.802C28.0477 15.7992 28.0916 15.8062 28.1327 15.8224C28.1739 15.8385 28.2112 15.8636 28.2423 15.8958C28.2734 15.9281 28.2975 15.9668 28.3131 16.0095C28.3287 16.0521 28.3354 16.0977 28.3327 16.1433V18.8736C28.3354 18.9192 28.3287 18.9648 28.3131 19.0074C28.2975 19.0501 28.2734 19.0888 28.2423 19.1211C28.2112 19.1533 28.1739 19.1784 28.1327 19.1946C28.0916 19.2107 28.0477 19.2177 28.0038 19.2149Z" fill="#B6CFEA"/>
<path d="M18.6624 12.2525C18.8441 12.2525 18.9913 12.0997 18.9913 11.9112C18.9913 11.7227 18.8441 11.5699 18.6624 11.5699C18.4808 11.5699 18.3335 11.7227 18.3335 11.9112C18.3335 12.0997 18.4808 12.2525 18.6624 12.2525Z" fill="white"/>
<path d="M16.2941 21.1263C16.2584 21.1309 16.2221 21.1271 16.188 21.1153C16.1538 21.1035 16.1227 21.0839 16.0968 21.058C15.3073 20.0341 14.9126 18.7372 14.9126 17.4403C14.9091 16.3619 15.1815 15.3019 15.702 14.3686C16.2296 13.4798 16.9506 12.7318 17.8071 12.1843C17.862 12.1588 17.9232 12.1517 17.9821 12.1639C18.0411 12.1761 18.0949 12.2071 18.1361 12.2526C18.1606 12.3095 18.1675 12.3729 18.1557 12.4341C18.1439 12.4953 18.1141 12.5511 18.0703 12.5939C17.2543 13.0724 16.5749 13.7665 16.1011 14.6058C15.6274 15.445 15.3762 16.3994 15.3731 17.372C15.3715 18.5859 15.7657 19.7647 16.4915 20.7167C16.5572 20.785 16.5572 20.9897 16.4257 21.058C16.3599 21.1263 16.3599 21.1263 16.2941 21.1263Z" fill="white"/>
<g opacity="0.25">
<path d="M23.8594 24.3345V23.7884C22.9384 24.3345 21.9517 24.8805 20.7675 24.8805C19.4518 24.8805 18.5967 24.2662 17.7415 23.7884L17.8072 24.3345C17.8072 24.3345 18.794 25.4266 20.8333 25.4266C22.7411 25.3584 23.8594 24.3345 23.8594 24.3345Z" fill="#E9654B"/>
</g>
</svg>
