<svg width="40" height="40" viewBox="0 0 40 40" fill="none" xmlns="http://www.w3.org/2000/svg">
<path d="M16.1121 8.33395H23.0166L15.849 29.2617C15.8124 29.3686 15.759 29.4692 15.6909 29.5599C15.623 29.6507 15.541 29.7303 15.448 29.7961C15.3549 29.8619 15.2522 29.913 15.1432 29.9475C15.0341 29.9819 14.9203 29.9998 14.806 29.9998H9.43254C9.25811 29.9998 9.08601 29.959 8.93084 29.8802C8.77549 29.8018 8.6414 29.6879 8.53969 29.5482C8.4379 29.4084 8.37132 29.2468 8.34542 29.0767C8.31946 28.9067 8.33521 28.7329 8.39093 28.57L15.0688 9.07138C15.1052 8.96451 15.1586 8.86397 15.2269 8.77319C15.2948 8.68241 15.3771 8.60284 15.4698 8.53705C15.5629 8.47126 15.6656 8.42013 15.7747 8.38566C15.8837 8.35118 15.9975 8.33337 16.1118 8.33337V8.33366L16.1121 8.33395Z" fill="url(#paint0_linear_21935_19471)"/>
<path d="M28.8401 29.9997H22.6404C22.5712 29.9997 22.5021 29.9934 22.4338 29.9805C22.3659 29.9678 22.2991 29.9489 22.2346 29.9239C22.1702 29.8989 22.1083 29.8679 22.0497 29.8317C21.9911 29.7952 21.9362 29.7535 21.8855 29.707L14.85 23.2359C14.7756 23.1675 14.7238 23.0786 14.7013 22.9808C14.6788 22.883 14.6867 22.7808 14.724 22.6875C14.7613 22.5942 14.8262 22.5141 14.9104 22.4577C14.9947 22.4014 15.0942 22.3712 15.196 22.3712H26.1447L28.8395 30L28.8401 29.9997Z" fill="#0078D4"/>
<path d="M23.0417 8.334L18.2084 22.3727L26.1055 22.371L28.8144 29.9998H22.638C22.5741 29.9992 22.5102 29.9935 22.4472 29.9823C22.3842 29.9711 22.3224 29.9547 22.2623 29.9329C22.1418 29.8896 22.0297 29.8264 21.9309 29.7459L17.1817 25.3805L15.8522 29.242C15.8178 29.3385 15.7705 29.4301 15.7116 29.5143C15.5935 29.6836 15.432 29.8191 15.2434 29.907C15.1496 29.9507 15.0502 29.9819 14.948 29.9998H9.43599C9.25981 30.0004 9.08597 29.959 8.92933 29.8791C8.77267 29.7994 8.63782 29.6836 8.53618 29.5416C8.43454 29.3997 8.36909 29.2357 8.34538 29.0636C8.32175 28.8914 8.34045 28.7161 8.39992 28.5525L15.067 9.08608C15.1017 8.9772 15.1539 8.87464 15.2216 8.78214C15.289 8.68964 15.3712 8.60806 15.4645 8.54083C15.5579 8.47361 15.6617 8.42133 15.7717 8.38628C15.8817 8.35123 15.9969 8.33342 16.1127 8.334H23.0417Z" fill="url(#paint1_linear_21935_19471)"/>
<path d="M31.6089 28.5698C31.6646 28.7328 31.6803 28.9064 31.6547 29.0765C31.6288 29.2466 31.5623 29.4081 31.4607 29.548C31.359 29.6876 31.2249 29.8014 31.0697 29.88C30.9144 29.9585 30.7424 29.9995 30.5679 29.9995H22.8726C23.0471 29.9995 23.2191 29.9585 23.3746 29.88C23.5298 29.8016 23.664 29.6876 23.7658 29.548C23.8676 29.4083 23.9341 29.2466 23.96 29.0765C23.986 28.9065 23.9702 28.7327 23.9145 28.5698L17.2364 9.07059C17.1629 8.8558 17.0228 8.66912 16.8359 8.53684C16.7431 8.47106 16.6405 8.42021 16.5317 8.38574C16.4229 8.35126 16.3091 8.33374 16.1951 8.33374H23.89C24.0044 8.33374 24.1178 8.35126 24.2269 8.38574C24.3357 8.42021 24.4384 8.47134 24.5314 8.53684C24.6242 8.60263 24.7062 8.6822 24.7741 8.77269C24.8421 8.86318 24.8952 8.96373 24.9319 9.07059L31.6101 28.5698H31.6089Z" fill="url(#paint2_linear_21935_19471)"/>
<defs>
<linearGradient id="paint0_linear_21935_19471" x1="18.632" y1="9.9398" x2="11.6505" y2="30.8805" gradientUnits="userSpaceOnUse">
<stop stop-color="#114A8B"/>
<stop offset="1" stop-color="#0669BC"/>
</linearGradient>
<linearGradient id="paint1_linear_21935_19471" x1="20.8695" y1="19.6669" x2="19.2151" y2="20.2367" gradientUnits="userSpaceOnUse">
<stop stop-opacity="0.3"/>
<stop offset="0.1" stop-opacity="0.2"/>
<stop offset="0.3" stop-opacity="0.1"/>
<stop offset="0.6" stop-opacity="0.1"/>
<stop offset="1" stop-opacity="0"/>
</linearGradient>
<linearGradient id="paint2_linear_21935_19471" x1="19.9534" y1="9.33058" x2="27.6209" y2="30.071" gradientUnits="userSpaceOnUse">
<stop stop-color="#3CCBF4"/>
<stop offset="1" stop-color="#2892DF"/>
</linearGradient>
</defs>
</svg>
