<svg width="40" height="40" viewBox="0 0 40 40" fill="none" xmlns="http://www.w3.org/2000/svg">
<g clip-path="url(#clip0_21935_22960)">
<path d="M20 30C25.5228 30 30 25.5228 30 20C30 14.4772 25.5228 10 20 10C14.4772 10 10 14.4772 10 20C10 25.5228 14.4772 30 20 30Z" fill="#279FEA"/>
<path d="M20.5416 25.4416V23.5416H19.4583V25.4416L18.4291 24.8666L17.3208 25.5041L20 27.0458L22.7416 25.4666L21.6666 24.8458L20.5416 25.4416Z" fill="white"/>
<path d="M14.9916 17.7333L16.5583 18.6416L17.0999 17.675L15.4624 16.7875L16.3666 16.2708V15.0416L13.8916 16.4791L13.8958 19.4416L14.9916 18.8208V17.7333Z" fill="white"/>
<path d="M23.3667 18.6416L24.9917 17.7166L24.9875 18.8208L26.1084 19.4499V16.4708L23.5125 14.9874L23.4709 16.1958L24.5209 16.8166L22.8625 17.5999L23.3667 18.6416Z" fill="white"/>
<path d="M26.0999 20.6793L24.9999 20.0501V20.1168V22.1334L20.5207 19.6084V14.5126L22.4582 15.6126V14.3959L19.9999 12.9418L17.4374 14.4043V15.6543L19.3707 14.5376V19.6084L14.9999 22.2709V20.0251L13.8999 20.6543V23.5251L16.2082 24.8126L17.3332 24.1668L15.4999 23.1584L19.9999 20.5459L24.4457 23.1293L22.6624 24.1584L23.8207 24.8376L26.0874 23.5334L26.0999 20.6793Z" fill="white"/>
</g>
<defs>
<clipPath id="clip0_21935_22960">
<rect width="20" height="20" fill="white" transform="translate(10 10)"/>
</clipPath>
</defs>
</svg>
