<svg width="40" height="40" viewBox="0 0 40 40" fill="none" xmlns="http://www.w3.org/2000/svg">
<path d="M14.9089 18.1757C14.9089 18.4501 14.9399 18.6726 14.9942 18.8357C15.0563 18.9989 15.1339 19.1768 15.2426 19.3697C15.2814 19.429 15.2969 19.4883 15.2969 19.5402C15.2969 19.6144 15.2503 19.6885 15.1495 19.7627L14.6605 20.0741C14.5907 20.1186 14.5209 20.1409 14.4588 20.1409C14.3812 20.1409 14.3036 20.1038 14.226 20.0371C14.1173 19.9258 14.0242 19.8072 13.9466 19.6885C13.869 19.5625 13.7914 19.4216 13.706 19.251C13.1007 19.9332 12.3402 20.2744 11.4245 20.2744C10.7726 20.2744 10.2526 20.0964 9.87237 19.7404C9.49211 19.3845 9.2981 18.9099 9.2981 18.3166C9.2981 17.6863 9.53091 17.1746 10.0043 16.789C10.4777 16.4034 11.1063 16.2106 11.9056 16.2106C12.1695 16.2106 12.4411 16.2328 12.7282 16.2699C13.0153 16.307 13.3102 16.3663 13.6207 16.4331V15.8917C13.6207 15.3281 13.4965 14.9351 13.2559 14.7052C13.0076 14.4753 12.5885 14.3641 11.991 14.3641C11.7193 14.3641 11.44 14.3938 11.1528 14.4605C10.8657 14.5272 10.5863 14.6088 10.3147 14.7126C10.1905 14.7645 10.0974 14.7942 10.0431 14.809C9.98877 14.8239 9.94997 14.8313 9.91893 14.8313C9.81028 14.8313 9.75596 14.7571 9.75596 14.6014V14.238C9.75596 14.1194 9.77148 14.0304 9.81028 13.9785C9.84909 13.9266 9.91893 13.8747 10.0276 13.8227C10.2992 13.6893 10.6251 13.578 11.0054 13.489C11.3856 13.3926 11.7892 13.3481 12.216 13.3481C13.1395 13.3481 13.8147 13.5484 14.2492 13.9488C14.6761 14.3493 14.8934 14.9573 14.8934 15.7731V18.1757H14.9089ZM11.7581 19.3029C12.0142 19.3029 12.2781 19.2584 12.5575 19.1694C12.8368 19.0804 13.0852 18.9173 13.2947 18.6948C13.4189 18.5539 13.512 18.3982 13.5586 18.2202C13.6051 18.0423 13.6362 17.8272 13.6362 17.5751V17.2636C13.4111 17.2117 13.1705 17.1672 12.9222 17.1375C12.6739 17.1079 12.4333 17.093 12.1927 17.093C11.6728 17.093 11.2925 17.1895 11.0364 17.3897C10.7803 17.5899 10.6562 17.8717 10.6562 18.2425C10.6562 18.591 10.7493 18.8506 10.9433 19.0285C11.1296 19.2139 11.4012 19.3029 11.7581 19.3029ZM17.9898 20.1038C17.8501 20.1038 17.757 20.0816 17.6949 20.0296C17.6328 19.9852 17.5785 19.8813 17.5319 19.7404L15.7082 14.0081C15.6616 13.8598 15.6384 13.7634 15.6384 13.7115C15.6384 13.5929 15.7004 13.5261 15.8246 13.5261H16.5851C16.7326 13.5261 16.8335 13.5484 16.8878 13.6003C16.9499 13.6448 16.9964 13.7486 17.043 13.8895L18.3467 18.7986L19.5574 13.8895C19.5962 13.7412 19.6427 13.6448 19.7048 13.6003C19.7669 13.5558 19.8755 13.5261 20.0152 13.5261H20.6361C20.7835 13.5261 20.8844 13.5484 20.9465 13.6003C21.0086 13.6448 21.0629 13.7486 21.0939 13.8895L22.3201 18.858L23.6626 13.8895C23.7092 13.7412 23.7635 13.6448 23.8178 13.6003C23.8799 13.5558 23.9808 13.5261 24.1205 13.5261H24.8422C24.9664 13.5261 25.0362 13.5854 25.0362 13.7115C25.0362 13.7486 25.0285 13.7857 25.0207 13.8302C25.0129 13.8747 24.9974 13.934 24.9664 14.0156L23.0961 19.7479C23.0496 19.8962 22.9952 19.9926 22.9332 20.0371C22.8711 20.0816 22.7702 20.1112 22.6383 20.1112H21.9709C21.8234 20.1112 21.7225 20.089 21.6604 20.0371C21.5984 19.9852 21.544 19.8887 21.513 19.7404L20.3101 14.9573L19.115 19.733C19.0762 19.8813 19.0297 19.9777 18.9676 20.0296C18.9055 20.0816 18.7969 20.1038 18.6572 20.1038H17.9898ZM27.9619 20.304C27.5584 20.304 27.1548 20.2595 26.7668 20.1705C26.3788 20.0816 26.0761 19.9852 25.8744 19.8739C25.7502 19.8072 25.6648 19.733 25.6338 19.6663C25.6027 19.5995 25.5872 19.5254 25.5872 19.4586V19.0804C25.5872 18.9247 25.6493 18.8506 25.7657 18.8506C25.8123 18.8506 25.8588 18.858 25.9054 18.8728C25.952 18.8876 26.0218 18.9173 26.0994 18.947C26.3633 19.0582 26.6504 19.1472 26.9531 19.2065C27.2635 19.2658 27.5661 19.2955 27.8765 19.2955C28.3655 19.2955 28.7457 19.2139 29.0096 19.0508C29.2734 18.8876 29.4131 18.6503 29.4131 18.3463C29.4131 18.1387 29.3433 17.9681 29.2036 17.8272C29.0639 17.6863 28.8 17.5602 28.4198 17.4416L27.2945 17.1079C26.728 16.9373 26.3089 16.6852 26.0528 16.3515C25.7968 16.0252 25.6648 15.6618 25.6648 15.2762C25.6648 14.9648 25.7347 14.6904 25.8744 14.4531C26.014 14.2158 26.2003 14.0081 26.4331 13.845C26.6659 13.6744 26.9298 13.5484 27.2402 13.4594C27.5506 13.3704 27.8765 13.3333 28.218 13.3333C28.3887 13.3333 28.5672 13.3407 28.738 13.363C28.9164 13.3852 29.0794 13.4149 29.2424 13.4445C29.3976 13.4816 29.545 13.5187 29.6847 13.5632C29.8244 13.6077 29.9331 13.6522 30.0107 13.6967C30.1193 13.756 30.1969 13.8153 30.2435 13.8821C30.29 13.9414 30.3133 14.023 30.3133 14.1268V14.4753C30.3133 14.6311 30.2512 14.7126 30.1348 14.7126C30.0727 14.7126 29.9719 14.683 29.8399 14.6236C29.3976 14.4308 28.9009 14.3344 28.3499 14.3344C27.9076 14.3344 27.5584 14.4012 27.3178 14.5421C27.0772 14.683 26.9531 14.898 26.9531 15.2021C26.9531 15.4097 27.0307 15.5877 27.1859 15.7286C27.3411 15.8695 27.6282 16.0104 28.0395 16.1364L29.1415 16.4701C29.7002 16.6407 30.1038 16.878 30.3444 17.182C30.5849 17.4861 30.7013 17.8346 30.7013 18.2202C30.7013 18.5391 30.6315 18.8283 30.4996 19.0804C30.3599 19.3326 30.1736 19.555 29.9331 19.733C29.6925 19.9184 29.4053 20.0519 29.0716 20.1483C28.7224 20.2521 28.3577 20.304 27.9619 20.304Z" fill="#3B485C"/>
<path fill-rule="evenodd" clip-rule="evenodd" d="M29.4286 23.908C26.8754 25.71 23.1659 26.6667 19.9764 26.6667C15.5064 26.6667 11.4787 25.0871 8.43662 22.462C8.19605 22.2543 8.41334 21.9726 8.70048 22.1357C11.9909 23.9599 16.0496 25.0649 20.248 25.0649C23.0805 25.0649 26.1925 24.5013 29.0561 23.3445C29.4829 23.1591 29.8476 23.6114 29.4286 23.908Z" fill="#FF9900"/>
<path fill-rule="evenodd" clip-rule="evenodd" d="M30.4918 22.7512C30.1659 22.3508 28.3344 22.5584 27.504 22.6548C27.2557 22.6845 27.2169 22.4768 27.4419 22.3211C28.9009 21.3422 31.2989 21.624 31.5782 21.9503C31.8576 22.284 31.5006 24.5754 30.1348 25.673C29.9253 25.8435 29.7235 25.7545 29.8166 25.5321C30.127 24.7979 30.8177 23.1442 30.4918 22.7512Z" fill="#FF9900"/>
</svg>
