<svg width="40" height="40" viewBox="0 0 40 40" fill="none" xmlns="http://www.w3.org/2000/svg">
<path d="M15.4613 14.8454C15.4384 14.8237 15.4135 14.8003 15.3889 14.7767C14.8842 14.2919 14.4936 13.7312 14.2577 13.0686C14.1917 12.8832 14.1418 12.694 14.1507 12.4943C14.1515 12.4753 14.1515 12.4563 14.1528 12.4374C14.1706 12.1795 14.3431 12.0493 14.5951 12.1103C14.6746 12.1309 14.7515 12.1604 14.8244 12.1982C15.1 12.3364 15.3246 12.5407 15.5312 12.7648C15.8981 13.1553 16.1923 13.6081 16.4001 14.102C16.4046 14.1138 16.4098 14.1253 16.4156 14.1364C16.4185 14.1416 16.4245 14.1449 16.438 14.1572C17.4214 13.5672 18.5338 13.2259 19.6788 13.1628C19.6718 13.1277 19.6675 13.1009 19.6609 13.0748C19.5441 12.5913 19.5082 12.0917 19.5548 11.5965C19.5753 11.2997 19.6351 11.007 19.7326 10.726C19.7797 10.5779 19.854 10.44 19.9516 10.3191C19.9885 10.2759 20.0311 10.238 20.0782 10.2062C20.1251 10.1731 20.181 10.1551 20.2385 10.1547C20.2959 10.1543 20.3521 10.1715 20.3995 10.204C20.4995 10.2718 20.5801 10.3646 20.6331 10.4733C20.7318 10.6575 20.8027 10.8553 20.8436 11.0603C20.9367 11.4938 20.9653 11.9386 20.9285 12.3805C20.9102 12.6501 20.8634 12.9171 20.7888 13.1769C21.0737 13.2294 21.3572 13.2701 21.6347 13.336C21.9116 13.4004 22.1846 13.4806 22.4524 13.5761C22.7223 13.6752 22.9863 13.7896 23.2432 13.9189C23.497 14.0455 23.7386 14.1965 23.9919 14.3404C24.0001 14.3231 24.012 14.3024 24.0201 14.2803C24.2839 13.5505 24.7384 12.9047 25.3361 12.4099C25.4757 12.2901 25.636 12.1967 25.809 12.1345C25.8567 12.1179 25.906 12.1066 25.9562 12.1007C26.2067 12.072 26.3119 12.2297 26.3304 12.418C26.3443 12.5568 26.3338 12.697 26.2995 12.8322C26.2079 13.1814 26.0632 13.5145 25.8703 13.8197C25.5987 14.2586 25.2763 14.6539 24.8665 14.9729C24.8544 14.9823 24.8438 14.9936 24.8233 15.0125C25.2241 15.3821 25.581 15.7966 25.8871 16.2478C25.8649 16.2535 25.8423 16.2575 25.8195 16.2597C25.3957 16.2603 24.9719 16.259 24.5481 16.2616C24.5231 16.261 24.4986 16.2545 24.4766 16.2428C24.4546 16.2311 24.4356 16.2143 24.4212 16.194C23.4965 15.1837 22.2499 14.5256 20.894 14.332C20.4931 14.2737 20.0871 14.258 19.6829 14.2853C18.4775 14.3589 17.3244 14.8033 16.3814 15.5577C16.1379 15.7497 15.9107 15.9617 15.7023 16.1914C15.6838 16.2143 15.6602 16.2326 15.6334 16.2448C15.6066 16.257 15.5773 16.2628 15.5478 16.2616C15.143 16.2588 14.7381 16.2602 14.3333 16.2603H14.2472C14.2719 16.1639 14.5208 15.8227 14.8025 15.5181C15.0126 15.291 15.2352 15.0754 15.4613 14.8454Z" fill="#0F1689"/>
<path d="M25.7813 23.9165C25.4997 24.3106 25.1784 24.6747 24.8223 25.003C24.8507 25.0267 24.8738 25.0459 24.8968 25.0651C25.5148 25.5706 25.9811 26.2371 26.2442 26.9909C26.3142 27.1747 26.3442 27.3714 26.3322 27.5677C26.3286 27.618 26.3185 27.6676 26.3023 27.7154C26.282 27.783 26.2375 27.8409 26.1774 27.8779C26.1172 27.915 26.0456 27.9286 25.976 27.9163C25.8821 27.9041 25.7908 27.877 25.7055 27.8361C25.5752 27.7718 25.4521 27.6938 25.3382 27.6035C24.7387 27.1109 24.2835 26.4653 24.0208 25.7352C24.0133 25.7146 24.0051 25.6944 23.9919 25.6601C23.6726 25.8712 23.3382 26.0585 22.9914 26.2204C22.6463 26.3777 22.2894 26.5078 21.9239 26.6094C21.5526 26.7101 21.1741 26.7822 20.7918 26.8249C20.7985 26.8585 20.8023 26.8853 20.8093 26.9113C20.9305 27.387 20.9707 27.8799 20.9281 28.369C20.9121 28.6756 20.8525 28.9783 20.7512 29.2681C20.7029 29.388 20.6473 29.5048 20.5846 29.6179C20.5592 29.6617 20.5277 29.7017 20.491 29.7367C20.3318 29.9011 20.1417 29.9025 19.9866 29.7338C19.9253 29.6657 19.8727 29.5902 19.8303 29.509C19.7072 29.278 19.6439 29.0268 19.5986 28.7706C19.5405 28.421 19.5222 28.0658 19.5443 27.712C19.5563 27.453 19.595 27.1958 19.6597 26.9446C19.6653 26.9233 19.6704 26.9019 19.6745 26.8802C19.6756 26.8747 19.672 26.8683 19.6677 26.8507C18.5228 26.786 17.4111 26.4428 16.429 25.8509C16.4126 25.8873 16.3985 25.9179 16.3849 25.9488C16.1097 26.591 15.6861 27.1588 15.1489 27.6056C15.0066 27.7271 14.8433 27.8215 14.667 27.8839C14.5843 27.9171 14.4942 27.9268 14.4064 27.912C14.3579 27.9033 14.3125 27.8822 14.2746 27.8507C14.2367 27.8192 14.2077 27.7785 14.1902 27.7324C14.1336 27.5954 14.1436 27.453 14.1629 27.3117C14.1944 27.1148 14.2524 26.9231 14.3352 26.7417C14.5805 26.1703 14.9416 25.656 15.3956 25.2312C15.414 25.2138 15.4328 25.1969 15.4508 25.1792C15.4566 25.171 15.4615 25.1622 15.4655 25.153C15.0376 24.782 14.6554 24.3615 14.3267 23.9003C14.3661 23.8971 14.3924 23.8931 14.4188 23.8931C14.8394 23.8927 15.2599 23.8942 15.6805 23.8914C15.7085 23.8905 15.7363 23.8959 15.7619 23.9071C15.7875 23.9184 15.8103 23.9352 15.8286 23.9564C16.2858 24.4268 16.8186 24.8173 17.4047 25.1118C18.0249 25.4309 18.6992 25.6313 19.3929 25.7027C21.2777 25.886 22.899 25.3146 24.2569 23.9886C24.2873 23.9557 24.3245 23.93 24.3659 23.9131C24.4073 23.8962 24.4519 23.8886 24.4966 23.8908C24.8886 23.8957 25.2808 23.8928 25.6729 23.8928H25.7743L25.7813 23.9165Z" fill="#0F1689"/>
<path d="M24.0295 17.9105C24.141 17.9105 24.2484 17.918 24.3541 17.9085C24.4739 17.8976 24.5597 17.9405 24.6471 18.021C25.1516 18.4859 25.6614 18.945 26.1694 19.4061C26.195 19.4293 26.221 19.4518 26.2538 19.4809C26.2844 19.4546 26.3131 19.4311 26.3404 19.4063C26.8641 18.9295 27.3874 18.4524 27.9104 17.9748C27.9321 17.9524 27.9583 17.935 27.9873 17.9236C28.0163 17.9123 28.0474 17.9073 28.0785 17.909C28.2073 17.9142 28.3364 17.9105 28.4721 17.9105V22.1252C28.4032 22.1454 27.4771 22.1494 27.3666 22.1277V19.9932L27.3451 19.983C26.9847 20.3117 26.6243 20.6404 26.2556 20.9766C25.8866 20.6442 25.5219 20.3157 25.1573 19.9872L25.1363 19.9949C25.1354 20.173 25.136 20.3512 25.1359 20.5294C25.1358 20.7064 25.1358 20.8835 25.1359 21.0605V22.1354H24.0387C24.0182 22.0645 24.0086 18.1489 24.0295 17.9105Z" fill="#0F1689"/>
<path d="M13.9054 17.9153H14.9959C15.018 17.9854 15.0223 22.0341 14.9997 22.1363H13.9082C13.9022 21.8681 13.9063 21.6009 13.9056 21.3338C13.9048 21.0689 13.9054 20.804 13.9054 20.5322H12.5539V22.1219C12.4715 22.1465 11.5406 22.1488 11.448 22.1268V17.9158H12.5495V19.4033C12.6282 19.4261 13.7865 19.4303 13.9044 19.4085C13.9047 19.2894 13.9052 19.1674 13.9054 19.0455C13.9055 18.919 13.9055 18.7925 13.9054 18.666C13.9054 18.5427 13.9054 18.4193 13.9054 18.296C13.9054 18.1729 13.9054 18.0497 13.9054 17.9153Z" fill="#0F1689"/>
<path d="M16.303 22.1348V17.9278C16.3677 17.9066 18.7648 17.8984 18.9215 17.9196V18.8162C18.8863 18.8187 18.85 18.8235 18.8138 18.8236C18.3869 18.8241 17.96 18.8242 17.5331 18.8239H17.4144V19.5213H18.7482V20.4489H17.4263C17.4042 20.5283 17.3981 21.0816 17.416 21.2348C17.4498 21.237 17.486 21.2416 17.5222 21.2416C17.9491 21.2421 18.376 21.2422 18.8029 21.2419H18.9217V22.1348H16.303Z" fill="#0F1689"/>
<path d="M20.1714 22.1363C20.1513 22.0235 20.1554 17.9923 20.1753 17.9156H21.2617V21.0262C21.3086 21.0287 21.3454 21.0322 21.3822 21.0322C21.8123 21.0326 22.2423 21.0327 22.6724 21.0325C22.7094 21.0325 22.7465 21.0325 22.7887 21.0325V22.1363L20.1714 22.1363Z" fill="#0F1689"/>
</svg>
